<?xml version="1.0" encoding="UTF-8" standalone="no"?>
<!DOCTYPE svg PUBLIC "-//W3C//DTD SVG 1.0//EN"
 "http://www.w3.org/TR/2001/REC-SVG-20010904/DTD/svg10.dtd" [
 <!ATTLIST svg xmlns:xlink CDATA #FIXED "http://www.w3.org/1999/xlink">
]>
<!-- Generated by Graphviz version 2.18 (Wed Jun 25 07:55:41 UTC 2008)
     For user: (lgm) Meredith Gregory -->
<!-- Title: G Pages: 1 -->
<svg width="934pt" height="404pt"
 viewBox="0.00 0.00 934.00 404.00" xmlns="http://www.w3.org/2000/svg" xmlns:xlink="http://www.w3.org/1999/xlink">
<g id="graph0" class="graph" transform="scale(1 1) rotate(0) translate(4 400)">
<title>G</title>
<polygon style="fill:white;stroke:white;" points="-4,4 -4,-400 930,-400 930,4 -4,4"/>
<!-- Cal_Utilities_Math_pi -->
<g id="node1" class="node"><title>Cal_Utilities_Math_pi</title>
<ellipse style="fill:none;stroke:black;" cx="134" cy="-378" rx="97.9784" ry="18"/>
<text text-anchor="middle" x="134" y="-373.9" style="font-family:Times New Roman;font-size:14.00;">Cal_Utilities_Math_pi</text>
</g>
<!-- Cal_Utilities_Math_round -->
<g id="node5" class="node"><title>Cal_Utilities_Math_round</title>
<ellipse style="fill:none;stroke:black;" cx="240" cy="-288" rx="114.155" ry="18"/>
<text text-anchor="middle" x="240" y="-283.9" style="font-family:Times New Roman;font-size:14.00;">Cal_Utilities_Math_round</text>
</g>
<!-- Cal_Utilities_Math_pi&#45;&gt;Cal_Utilities_Math_round -->
<g id="edge2" class="edge"><title>Cal_Utilities_Math_pi&#45;&gt;Cal_Utilities_Math_round</title>
<path style="fill:none;stroke:black;" d="M155,-360C171,-346 194,-327 211,-313"/>
<polygon style="fill:black;stroke:black;" points="213.779,-315.219 219,-306 209.169,-309.951 213.779,-315.219"/>
<text text-anchor="middle" x="202" y="-328.9" style="font-family:Times New Roman;font-size:14.00;">3</text>
</g>
<!-- Cal_Utilities_Math_e -->
<g id="node2" class="node"><title>Cal_Utilities_Math_e</title>
<ellipse style="fill:none;stroke:black;" cx="346" cy="-378" rx="95.8938" ry="18"/>
<text text-anchor="middle" x="346" y="-373.9" style="font-family:Times New Roman;font-size:14.00;">Cal_Utilities_Math_e</text>
</g>
<!-- Cal_Utilities_Math_e&#45;&gt;Cal_Utilities_Math_round -->
<g id="edge4" class="edge"><title>Cal_Utilities_Math_e&#45;&gt;Cal_Utilities_Math_round</title>
<path style="fill:none;stroke:black;" d="M325,-360C309,-346 286,-327 269,-313"/>
<polygon style="fill:black;stroke:black;" points="270.831,-309.951 261,-306 266.221,-315.219 270.831,-309.951"/>
<text text-anchor="middle" x="307" y="-328.9" style="font-family:Times New Roman;font-size:14.00;">6</text>
</g>
<!-- Cal_WS_Trampoline_calculatorWSService_4CALTrampoline_new -->
<g id="node3" class="node"><title>Cal_WS_Trampoline_calculatorWSService_4CALTrampoline_new</title>
<ellipse style="fill:none;stroke:black;" cx="646" cy="-198" rx="280.038" ry="18"/>
<text text-anchor="middle" x="646" y="-193.9" style="font-family:Times New Roman;font-size:14.00;">Cal_WS_Trampoline_calculatorWSService_4CALTrampoline_new</text>
</g>
<!-- Cal_WS_Trampoline_calculatorWSService_4CALTrampoline_add -->
<g id="node7" class="node"><title>Cal_WS_Trampoline_calculatorWSService_4CALTrampoline_add</title>
<ellipse style="fill:none;stroke:black;" cx="278" cy="-108" rx="277.953" ry="18"/>
<text text-anchor="middle" x="278" y="-103.9" style="font-family:Times New Roman;font-size:14.00;">Cal_WS_Trampoline_calculatorWSService_4CALTrampoline_add</text>
</g>
<!-- Cal_WS_Trampoline_calculatorWSService_4CALTrampoline_new&#45;&gt;Cal_WS_Trampoline_calculatorWSService_4CALTrampoline_add -->
<g id="edge6" class="edge"><title>Cal_WS_Trampoline_calculatorWSService_4CALTrampoline_new&#45;&gt;Cal_WS_Trampoline_calculatorWSService_4CALTrampoline_add</title>
<path style="fill:none;stroke:black;" d="M575,-181C513,-166 424,-143 360,-127"/>
<polygon style="fill:black;stroke:black;" points="360.492,-123.529 350,-125 359.119,-130.393 360.492,-123.529"/>
<text text-anchor="middle" x="498" y="-148.9" style="font-family:Times New Roman;font-size:14.00;">9</text>
</g>
<!-- Cal_Core_Prelude_toInt -->
<g id="node4" class="node"><title>Cal_Core_Prelude_toInt</title>
<ellipse style="fill:none;stroke:black;" cx="240" cy="-198" rx="107.902" ry="18"/>
<text text-anchor="middle" x="240" y="-193.9" style="font-family:Times New Roman;font-size:14.00;">Cal_Core_Prelude_toInt</text>
</g>
<!-- Cal_Core_Prelude_toInt&#45;&gt;Cal_WS_Trampoline_calculatorWSService_4CALTrampoline_add -->
<g id="edge8" class="edge"><title>Cal_Core_Prelude_toInt&#45;&gt;Cal_WS_Trampoline_calculatorWSService_4CALTrampoline_add</title>
<path style="fill:none;stroke:black;" d="M237,-180C236,-169 236,-155 241,-144 243,-140 245,-137 247,-134"/>
<polygon style="fill:black;stroke:black;" points="250.049,-135.831 254,-126 244.781,-131.221 250.049,-135.831"/>
<text text-anchor="middle" x="249" y="-148.9" style="font-family:Times New Roman;font-size:14.00;">12</text>
</g>
<!-- Cal_Core_Prelude_toInt&#45;&gt;Cal_WS_Trampoline_calculatorWSService_4CALTrampoline_add -->
<g id="edge10" class="edge"><title>Cal_Core_Prelude_toInt&#45;&gt;Cal_WS_Trampoline_calculatorWSService_4CALTrampoline_add</title>
<path style="fill:none;stroke:black;" d="M248,-180C251,-174 254,-168 256,-162 260,-153 264,-144 267,-135"/>
<polygon style="fill:black;stroke:black;" points="270.137,-136.56 271,-126 263.74,-133.717 270.137,-136.56"/>
<text text-anchor="middle" x="272" y="-148.9" style="font-family:Times New Roman;font-size:14.00;">15</text>
</g>
<!-- Cal_Utilities_Math_round&#45;&gt;Cal_Core_Prelude_toInt -->
<g id="edge12" class="edge"><title>Cal_Utilities_Math_round&#45;&gt;Cal_Core_Prelude_toInt</title>
<path style="fill:none;stroke:black;" d="M230,-270C227,-264 224,-258 223,-252 222,-244 222,-241 223,-234 223,-231 224,-228 225,-226"/>
<polygon style="fill:black;stroke:black;" points="228.536,-226.585 229,-216 222.036,-223.985 228.536,-226.585"/>
<text text-anchor="middle" x="233" y="-238.9" style="font-family:Times New Roman;font-size:14.00;">18</text>
</g>
<!-- Cal_Utilities_Math_round&#45;&gt;Cal_Core_Prelude_toInt -->
<g id="edge14" class="edge"><title>Cal_Utilities_Math_round&#45;&gt;Cal_Core_Prelude_toInt</title>
<path style="fill:none;stroke:black;" d="M240,-270C240,-257 240,-241 240,-226"/>
<polygon style="fill:black;stroke:black;" points="243.5,-226 240,-216 236.5,-226 243.5,-226"/>
<text text-anchor="middle" x="248" y="-238.9" style="font-family:Times New Roman;font-size:14.00;">21</text>
</g>
<!-- output -->
<g id="node6" class="node"><title>output</title>
<ellipse style="fill:none;stroke:black;" cx="278" cy="-18" rx="34.9399" ry="18"/>
<text text-anchor="middle" x="278" y="-13.9" style="font-family:Times New Roman;font-size:14.00;">output</text>
</g>
<!-- Cal_WS_Trampoline_calculatorWSService_4CALTrampoline_add&#45;&gt;output -->
<g id="edge16" class="edge"><title>Cal_WS_Trampoline_calculatorWSService_4CALTrampoline_add&#45;&gt;output</title>
<path style="fill:none;stroke:black;" d="M278,-90C278,-77 278,-61 278,-46"/>
<polygon style="fill:black;stroke:black;" points="281.5,-46 278,-36 274.5,-46 281.5,-46"/>
<text text-anchor="middle" x="286" y="-58.9" style="font-family:Times New Roman;font-size:14.00;">24</text>
</g>
</g>
</svg>
