<?xml version="1.0" encoding="UTF-8" standalone="no"?>
<!DOCTYPE svg PUBLIC "-//W3C//DTD SVG 1.0//EN"
 "http://www.w3.org/TR/2001/REC-SVG-20010904/DTD/svg10.dtd" [
 <!ATTLIST svg xmlns:xlink CDATA #FIXED "http://www.w3.org/1999/xlink">
]>
<!-- Generated by Graphviz version 2.18 (Wed Jun 25 07:55:41 UTC 2008)
     For user: (lgm) Meredith Gregory -->
<!-- Title: G Pages: 1 -->
<svg width="1254pt" height="404pt"
 viewBox="0.00 0.00 1254.00 404.00" xmlns="http://www.w3.org/2000/svg" xmlns:xlink="http://www.w3.org/1999/xlink">
<g id="graph0" class="graph" transform="scale(1 1) rotate(0) translate(4 400)">
<title>G</title>
<polygon style="fill:white;stroke:white;" points="-4,4 -4,-400 1250,-400 1250,4 -4,4"/>
<!-- Cal_Utilities_Math_pi_1229456446801 -->
<g id="node1" class="node"><title>Cal_Utilities_Math_pi_1229456446801</title>
<ellipse style="fill:none;stroke:black;" cx="169" cy="-378" rx="169.051" ry="18"/>
<text text-anchor="middle" x="169" y="-373.9" style="font-family:Times New Roman;font-size:14.00;">Cal_Utilities_Math_pi_1229456446801</text>
</g>
<!-- Cal_Utilities_Math_round_1229456446803 -->
<g id="node5" class="node"><title>Cal_Utilities_Math_round_1229456446803</title>
<ellipse style="fill:none;stroke:black;" cx="346" cy="-288" rx="186.228" ry="18"/>
<text text-anchor="middle" x="346" y="-283.9" style="font-family:Times New Roman;font-size:14.00;">Cal_Utilities_Math_round_1229456446804</text>
</g>
<!-- Cal_Utilities_Math_pi_1229456446801&#45;&gt;Cal_Utilities_Math_round_1229456446803 -->
<g id="edge2" class="edge"><title>Cal_Utilities_Math_pi_1229456446801&#45;&gt;Cal_Utilities_Math_round_1229456446803</title>
<path style="fill:none;stroke:black;" d="M204,-360C232,-346 272,-325 302,-310"/>
<polygon style="fill:black;stroke:black;" points="303.283,-313.26 311,-306 300.44,-306.863 303.283,-313.26"/>
<text text-anchor="middle" x="279" y="-328.9" style="font-family:Times New Roman;font-size:14.00;">3</text>
</g>
<!-- Cal_Utilities_Math_e_1229456446802 -->
<g id="node2" class="node"><title>Cal_Utilities_Math_e_1229456446802</title>
<ellipse style="fill:none;stroke:black;" cx="523" cy="-378" rx="166.772" ry="18"/>
<text text-anchor="middle" x="523" y="-373.9" style="font-family:Times New Roman;font-size:14.00;">Cal_Utilities_Math_e_1229456446802</text>
</g>
<!-- Cal_Utilities_Math_e_1229456446802&#45;&gt;Cal_Utilities_Math_round_1229456446803 -->
<g id="edge4" class="edge"><title>Cal_Utilities_Math_e_1229456446802&#45;&gt;Cal_Utilities_Math_round_1229456446803</title>
<path style="fill:none;stroke:black;" d="M488,-360C460,-346 420,-325 390,-310"/>
<polygon style="fill:black;stroke:black;" points="391.56,-306.863 381,-306 388.717,-313.26 391.56,-306.863"/>
<text text-anchor="middle" x="456" y="-328.9" style="font-family:Times New Roman;font-size:14.00;">6</text>
</g>
<!-- Cal_WS_Trampoline_calculatorWSService_4CALTrampoline_new_1229456446802 -->
<g id="node3" class="node"><title>Cal_WS_Trampoline_calculatorWSService_4CALTrampoline_new_1229456446802</title>
<ellipse style="fill:none;stroke:black;" cx="895" cy="-198" rx="351.11" ry="18"/>
<text text-anchor="middle" x="895" y="-193.9" style="font-family:Times New Roman;font-size:14.00;">Cal_WS_Trampoline_calculatorWSService_4CALTrampoline_new_1229456446802</text>
</g>
<!-- Cal_WS_Trampoline_calculatorWSService_4CALTrampoline_add_1229456446804 -->
<g id="node7" class="node"><title>Cal_WS_Trampoline_calculatorWSService_4CALTrampoline_add_1229456446804</title>
<ellipse style="fill:none;stroke:black;" cx="384" cy="-108" rx="349.026" ry="18"/>
<text text-anchor="middle" x="384" y="-103.9" style="font-family:Times New Roman;font-size:14.00;">Cal_WS_Trampoline_calculatorWSService_4CALTrampoline_add_1229456446804</text>
</g>
<!-- Cal_WS_Trampoline_calculatorWSService_4CALTrampoline_new_1229456446802&#45;&gt;Cal_WS_Trampoline_calculatorWSService_4CALTrampoline_add_1229456446804 -->
<g id="edge6" class="edge"><title>Cal_WS_Trampoline_calculatorWSService_4CALTrampoline_new_1229456446802&#45;&gt;Cal_WS_Trampoline_calculatorWSService_4CALTrampoline_add_1229456446804</title>
<path style="fill:none;stroke:black;" d="M797,-181C709,-166 582,-143 491,-127"/>
<polygon style="fill:black;stroke:black;" points="491.492,-123.529 481,-125 490.119,-130.393 491.492,-123.529"/>
<text text-anchor="middle" x="689" y="-148.9" style="font-family:Times New Roman;font-size:14.00;">9</text>
</g>
<!-- Cal_Core_Prelude_toInt_1229456446803 -->
<g id="node4" class="node"><title>Cal_Core_Prelude_toInt_1229456446803</title>
<ellipse style="fill:none;stroke:black;" cx="346" cy="-198" rx="179.975" ry="18"/>
<text text-anchor="middle" x="346" y="-193.9" style="font-family:Times New Roman;font-size:14.00;">Cal_Core_Prelude_toInt_1229456446803</text>
</g>
<!-- Cal_Core_Prelude_toInt_1229456446803&#45;&gt;Cal_WS_Trampoline_calculatorWSService_4CALTrampoline_add_1229456446804 -->
<g id="edge8" class="edge"><title>Cal_Core_Prelude_toInt_1229456446803&#45;&gt;Cal_WS_Trampoline_calculatorWSService_4CALTrampoline_add_1229456446804</title>
<path style="fill:none;stroke:black;" d="M343,-180C342,-169 342,-155 347,-144 349,-140 351,-137 353,-134"/>
<polygon style="fill:black;stroke:black;" points="356.049,-135.831 360,-126 350.781,-131.221 356.049,-135.831"/>
<text text-anchor="middle" x="355" y="-148.9" style="font-family:Times New Roman;font-size:14.00;">12</text>
</g>
<!-- Cal_Core_Prelude_toInt_1229456446803&#45;&gt;Cal_WS_Trampoline_calculatorWSService_4CALTrampoline_add_1229456446804 -->
<g id="edge10" class="edge"><title>Cal_Core_Prelude_toInt_1229456446803&#45;&gt;Cal_WS_Trampoline_calculatorWSService_4CALTrampoline_add_1229456446804</title>
<path style="fill:none;stroke:black;" d="M355,-180C357,-174 360,-168 362,-162 366,-153 370,-144 373,-135"/>
<polygon style="fill:black;stroke:black;" points="376.137,-136.56 377,-126 369.74,-133.717 376.137,-136.56"/>
<text text-anchor="middle" x="378" y="-148.9" style="font-family:Times New Roman;font-size:14.00;">15</text>
</g>
<!-- Cal_Utilities_Math_round_1229456446803&#45;&gt;Cal_Core_Prelude_toInt_1229456446803 -->
<g id="edge12" class="edge"><title>Cal_Utilities_Math_round_1229456446803&#45;&gt;Cal_Core_Prelude_toInt_1229456446803</title>
<path style="fill:none;stroke:black;" d="M336,-270C333,-264 330,-258 329,-252 328,-244 328,-241 329,-234 329,-231 330,-228 331,-226"/>
<polygon style="fill:black;stroke:black;" points="334.536,-226.585 335,-216 328.036,-223.985 334.536,-226.585"/>
<text text-anchor="middle" x="339" y="-238.9" style="font-family:Times New Roman;font-size:14.00;">18</text>
</g>
<!-- Cal_Utilities_Math_round_1229456446803&#45;&gt;Cal_Core_Prelude_toInt_1229456446803 -->
<g id="edge14" class="edge"><title>Cal_Utilities_Math_round_1229456446803&#45;&gt;Cal_Core_Prelude_toInt_1229456446803</title>
<path style="fill:none;stroke:black;" d="M346,-270C346,-257 346,-241 346,-226"/>
<polygon style="fill:black;stroke:black;" points="349.5,-226 346,-216 342.5,-226 349.5,-226"/>
<text text-anchor="middle" x="354" y="-238.9" style="font-family:Times New Roman;font-size:14.00;">21</text>
</g>
<!-- output_1229456446804 -->
<g id="node6" class="node"><title>output_1229456446804</title>
<ellipse style="fill:none;stroke:black;" cx="384" cy="-18" rx="107.012" ry="18"/>
<text text-anchor="middle" x="384" y="-13.9" style="font-family:Times New Roman;font-size:14.00;">output_1229456446804</text>
</g>
<!-- Cal_WS_Trampoline_calculatorWSService_4CALTrampoline_add_1229456446804&#45;&gt;output_1229456446804 -->
<g id="edge16" class="edge"><title>Cal_WS_Trampoline_calculatorWSService_4CALTrampoline_add_1229456446804&#45;&gt;output_1229456446804</title>
<path style="fill:none;stroke:black;" d="M384,-90C384,-77 384,-61 384,-46"/>
<polygon style="fill:black;stroke:black;" points="387.5,-46 384,-36 380.5,-46 387.5,-46"/>
<text text-anchor="middle" x="392" y="-58.9" style="font-family:Times New Roman;font-size:14.00;">24</text>
</g>
</g>
</svg>
