<?xml version="1.0" encoding="UTF-8" standalone="no"?>
<!DOCTYPE svg PUBLIC "-//W3C//DTD SVG 1.0//EN"
 "http://www.w3.org/TR/2001/REC-SVG-20010904/DTD/svg10.dtd" [
 <!ATTLIST svg xmlns:xlink CDATA #FIXED "http://www.w3.org/1999/xlink">
]>
<!-- Generated by Graphviz version 2.18 (Wed Jun 25 07:55:41 UTC 2008)
     For user: (lgm) Meredith Gregory -->
<!-- Title: G Pages: 1 -->
<svg width="1219pt" height="404pt"
 viewBox="0.00 0.00 1219.00 404.00" xmlns="http://www.w3.org/2000/svg" xmlns:xlink="http://www.w3.org/1999/xlink">
<g id="graph0" class="graph" transform="scale(1 1) rotate(0) translate(4 400)">
<title>G</title>
<polygon style="fill:white;stroke:white;" points="-4,4 -4,-400 1215,-400 1215,4 -4,4"/>
<!-- Cal_Utilities_Math_pi1228876565850 -->
<g id="node1" class="node"><title>Cal_Utilities_Math_pi1228876565850</title>
<ellipse style="fill:none;stroke:black;" cx="162" cy="-378" rx="162.102" ry="18"/>
<text text-anchor="middle" x="162" y="-373.9" style="font-family:Times New Roman;font-size:14.00;">Cal_Utilities_Math_pi1228876565851</text>
</g>
<!-- Cal_Utilities_Math_round1228876565852 -->
<g id="node5" class="node"><title>Cal_Utilities_Math_round1228876565852</title>
<ellipse style="fill:none;stroke:black;" cx="332" cy="-288" rx="178.78" ry="18"/>
<text text-anchor="middle" x="332" y="-283.9" style="font-family:Times New Roman;font-size:14.00;">Cal_Utilities_Math_round1228876565853</text>
</g>
<!-- Cal_Utilities_Math_pi1228876565850&#45;&gt;Cal_Utilities_Math_round1228876565852 -->
<g id="edge2" class="edge"><title>Cal_Utilities_Math_pi1228876565850&#45;&gt;Cal_Utilities_Math_round1228876565852</title>
<path style="fill:none;stroke:black;" d="M196,-360C222,-346 261,-325 289,-311"/>
<polygon style="fill:black;stroke:black;" points="290.958,-313.916 298,-306 287.559,-307.797 290.958,-313.916"/>
<text text-anchor="middle" x="268" y="-328.9" style="font-family:Times New Roman;font-size:14.00;">3</text>
</g>
<!-- Cal_Utilities_Math_e1228876565851 -->
<g id="node2" class="node"><title>Cal_Utilities_Math_e1228876565851</title>
<ellipse style="fill:none;stroke:black;" cx="502" cy="-378" rx="159.823" ry="18"/>
<text text-anchor="middle" x="502" y="-373.9" style="font-family:Times New Roman;font-size:14.00;">Cal_Utilities_Math_e1228876565851</text>
</g>
<!-- Cal_Utilities_Math_e1228876565851&#45;&gt;Cal_Utilities_Math_round1228876565852 -->
<g id="edge4" class="edge"><title>Cal_Utilities_Math_e1228876565851&#45;&gt;Cal_Utilities_Math_round1228876565852</title>
<path style="fill:none;stroke:black;" d="M468,-360C442,-346 403,-325 375,-311"/>
<polygon style="fill:black;stroke:black;" points="376.441,-307.797 366,-306 373.042,-313.916 376.441,-307.797"/>
<text text-anchor="middle" x="438" y="-328.9" style="font-family:Times New Roman;font-size:14.00;">6</text>
</g>
<!-- Cal_WS_Trampoline_calculatorWSService_4CALTrampoline_new1228876565851 -->
<g id="node3" class="node"><title>Cal_WS_Trampoline_calculatorWSService_4CALTrampoline_new1228876565851</title>
<ellipse style="fill:none;stroke:black;" cx="867" cy="-198" rx="343.967" ry="18"/>
<text text-anchor="middle" x="867" y="-193.9" style="font-family:Times New Roman;font-size:14.00;">Cal_WS_Trampoline_calculatorWSService_4CALTrampoline_new1228876565851</text>
</g>
<!-- Cal_WS_Trampoline_calculatorWSService_4CALTrampoline_add1228876565853 -->
<g id="node7" class="node"><title>Cal_WS_Trampoline_calculatorWSService_4CALTrampoline_add1228876565853</title>
<ellipse style="fill:none;stroke:black;" cx="370" cy="-108" rx="341.882" ry="18"/>
<text text-anchor="middle" x="370" y="-103.9" style="font-family:Times New Roman;font-size:14.00;">Cal_WS_Trampoline_calculatorWSService_4CALTrampoline_add1228876565853</text>
</g>
<!-- Cal_WS_Trampoline_calculatorWSService_4CALTrampoline_new1228876565851&#45;&gt;Cal_WS_Trampoline_calculatorWSService_4CALTrampoline_add1228876565853 -->
<g id="edge6" class="edge"><title>Cal_WS_Trampoline_calculatorWSService_4CALTrampoline_new1228876565851&#45;&gt;Cal_WS_Trampoline_calculatorWSService_4CALTrampoline_add1228876565853</title>
<path style="fill:none;stroke:black;" d="M771,-181C686,-166 563,-143 475,-127"/>
<polygon style="fill:black;stroke:black;" points="475.492,-123.529 465,-125 474.119,-130.393 475.492,-123.529"/>
<text text-anchor="middle" x="666" y="-148.9" style="font-family:Times New Roman;font-size:14.00;">9</text>
</g>
<!-- Cal_Core_Prelude_toInt1228876565852 -->
<g id="node4" class="node"><title>Cal_Core_Prelude_toInt1228876565852</title>
<ellipse style="fill:none;stroke:black;" cx="332" cy="-198" rx="173.026" ry="18"/>
<text text-anchor="middle" x="332" y="-193.9" style="font-family:Times New Roman;font-size:14.00;">Cal_Core_Prelude_toInt1228876565852</text>
</g>
<!-- Cal_Core_Prelude_toInt1228876565852&#45;&gt;Cal_WS_Trampoline_calculatorWSService_4CALTrampoline_add1228876565853 -->
<g id="edge8" class="edge"><title>Cal_Core_Prelude_toInt1228876565852&#45;&gt;Cal_WS_Trampoline_calculatorWSService_4CALTrampoline_add1228876565853</title>
<path style="fill:none;stroke:black;" d="M329,-180C328,-169 328,-155 333,-144 335,-140 337,-137 339,-134"/>
<polygon style="fill:black;stroke:black;" points="342.049,-135.831 346,-126 336.781,-131.221 342.049,-135.831"/>
<text text-anchor="middle" x="341" y="-148.9" style="font-family:Times New Roman;font-size:14.00;">12</text>
</g>
<!-- Cal_Core_Prelude_toInt1228876565852&#45;&gt;Cal_WS_Trampoline_calculatorWSService_4CALTrampoline_add1228876565853 -->
<g id="edge10" class="edge"><title>Cal_Core_Prelude_toInt1228876565852&#45;&gt;Cal_WS_Trampoline_calculatorWSService_4CALTrampoline_add1228876565853</title>
<path style="fill:none;stroke:black;" d="M341,-180C343,-174 346,-168 348,-162 352,-153 356,-144 359,-135"/>
<polygon style="fill:black;stroke:black;" points="362.137,-136.56 363,-126 355.74,-133.717 362.137,-136.56"/>
<text text-anchor="middle" x="364" y="-148.9" style="font-family:Times New Roman;font-size:14.00;">15</text>
</g>
<!-- Cal_Utilities_Math_round1228876565852&#45;&gt;Cal_Core_Prelude_toInt1228876565852 -->
<g id="edge12" class="edge"><title>Cal_Utilities_Math_round1228876565852&#45;&gt;Cal_Core_Prelude_toInt1228876565852</title>
<path style="fill:none;stroke:black;" d="M322,-270C319,-264 316,-258 315,-252 314,-244 314,-241 315,-234 315,-231 316,-228 317,-226"/>
<polygon style="fill:black;stroke:black;" points="320.536,-226.585 321,-216 314.036,-223.985 320.536,-226.585"/>
<text text-anchor="middle" x="325" y="-238.9" style="font-family:Times New Roman;font-size:14.00;">18</text>
</g>
<!-- Cal_Utilities_Math_round1228876565852&#45;&gt;Cal_Core_Prelude_toInt1228876565852 -->
<g id="edge14" class="edge"><title>Cal_Utilities_Math_round1228876565852&#45;&gt;Cal_Core_Prelude_toInt1228876565852</title>
<path style="fill:none;stroke:black;" d="M332,-270C332,-257 332,-241 332,-226"/>
<polygon style="fill:black;stroke:black;" points="335.5,-226 332,-216 328.5,-226 335.5,-226"/>
<text text-anchor="middle" x="340" y="-238.9" style="font-family:Times New Roman;font-size:14.00;">21</text>
</g>
<!-- output1228876565853 -->
<g id="node6" class="node"><title>output1228876565853</title>
<ellipse style="fill:none;stroke:black;" cx="370" cy="-18" rx="100.063" ry="18"/>
<text text-anchor="middle" x="370" y="-13.9" style="font-family:Times New Roman;font-size:14.00;">output1228876565853</text>
</g>
<!-- Cal_WS_Trampoline_calculatorWSService_4CALTrampoline_add1228876565853&#45;&gt;output1228876565853 -->
<g id="edge16" class="edge"><title>Cal_WS_Trampoline_calculatorWSService_4CALTrampoline_add1228876565853&#45;&gt;output1228876565853</title>
<path style="fill:none;stroke:black;" d="M370,-90C370,-77 370,-61 370,-46"/>
<polygon style="fill:black;stroke:black;" points="373.5,-46 370,-36 366.5,-46 373.5,-46"/>
<text text-anchor="middle" x="378" y="-58.9" style="font-family:Times New Roman;font-size:14.00;">24</text>
</g>
</g>
</svg>
