<?xml version="1.0" encoding="UTF-8" standalone="no"?>
<!DOCTYPE svg PUBLIC "-//W3C//DTD SVG 1.0//EN"
 "http://www.w3.org/TR/2001/REC-SVG-20010904/DTD/svg10.dtd" [
 <!ATTLIST svg xmlns:xlink CDATA #FIXED "http://www.w3.org/1999/xlink">
]>
<!-- Generated by Graphviz version 2.18 (Wed Jun 25 07:55:41 UTC 2008)
     For user: (lgm) Meredith Gregory -->
<!-- Title: G Pages: 1 -->
<svg width="992pt" height="224pt"
 viewBox="0.00 0.00 992.00 224.00" xmlns="http://www.w3.org/2000/svg" xmlns:xlink="http://www.w3.org/1999/xlink">
<g id="graph0" class="graph" transform="scale(1 1) rotate(0) translate(4 220)">
<title>G</title>
<polygon style="fill:white;stroke:white;" points="-4,4 -4,-220 988,-220 988,4 -4,4"/>
<!-- Cal_WS_Trampoline_calculatorWSService_4CALTrampoline_new -->
<g id="node1" class="node"><title>Cal_WS_Trampoline_calculatorWSService_4CALTrampoline_new</title>
<ellipse style="fill:none;stroke:black;" cx="280" cy="-198" rx="280.038" ry="18"/>
<text text-anchor="middle" x="280" y="-193.9" style="font-family:Times New Roman;font-size:14.00;">Cal_WS_Trampoline_calculatorWSService_4CALTrampoline_new</text>
</g>
<!-- Cal_WS_Trampoline_calculatorWS_add -->
<g id="node2" class="node"><title>Cal_WS_Trampoline_calculatorWS_add</title>
<ellipse style="fill:none;stroke:black;" cx="674" cy="-108" rx="173.026" ry="18"/>
<text text-anchor="middle" x="674" y="-103.9" style="font-family:Times New Roman;font-size:14.00;">Cal_WS_Trampoline_calculatorWS_add</text>
</g>
<!-- Cal_WS_Trampoline_calculatorWSService_4CALTrampoline_new&#45;&gt;Cal_WS_Trampoline_calculatorWS_add -->
<g id="edge2" class="edge"><title>Cal_WS_Trampoline_calculatorWSService_4CALTrampoline_new&#45;&gt;Cal_WS_Trampoline_calculatorWS_add</title>
<path style="fill:none;stroke:black;" d="M356,-181C424,-165 522,-142 591,-126"/>
<polygon style="fill:black;stroke:black;" points="591.881,-129.393 601,-124 590.508,-122.529 591.881,-129.393"/>
<text text-anchor="middle" x="517" y="-148.9" style="font-family:Times New Roman;font-size:14.00;">3</text>
</g>
<!-- output -->
<g id="node4" class="node"><title>output</title>
<ellipse style="fill:none;stroke:black;" cx="674" cy="-18" rx="34.9399" ry="18"/>
<text text-anchor="middle" x="674" y="-13.9" style="font-family:Times New Roman;font-size:14.00;">output</text>
</g>
<!-- Cal_WS_Trampoline_calculatorWS_add&#45;&gt;output -->
<g id="edge4" class="edge"><title>Cal_WS_Trampoline_calculatorWS_add&#45;&gt;output</title>
<path style="fill:none;stroke:black;" d="M674,-90C674,-77 674,-61 674,-46"/>
<polygon style="fill:black;stroke:black;" points="677.5,-46 674,-36 670.5,-46 677.5,-46"/>
<text text-anchor="middle" x="678" y="-58.9" style="font-family:Times New Roman;font-size:14.00;">6</text>
</g>
<!-- Cal_Utilities_Math_e -->
<g id="node3" class="node"><title>Cal_Utilities_Math_e</title>
<ellipse style="fill:none;stroke:black;" cx="674" cy="-198" rx="95.8938" ry="18"/>
<text text-anchor="middle" x="674" y="-193.9" style="font-family:Times New Roman;font-size:14.00;">Cal_Utilities_Math_e</text>
</g>
<!-- Cal_Utilities_Math_e&#45;&gt;Cal_WS_Trampoline_calculatorWS_add -->
<g id="edge6" class="edge"><title>Cal_Utilities_Math_e&#45;&gt;Cal_WS_Trampoline_calculatorWS_add</title>
<path style="fill:none;stroke:black;" d="M674,-180C674,-167 674,-151 674,-136"/>
<polygon style="fill:black;stroke:black;" points="677.5,-136 674,-126 670.5,-136 677.5,-136"/>
<text text-anchor="middle" x="678" y="-148.9" style="font-family:Times New Roman;font-size:14.00;">9</text>
</g>
<!-- Cal_Utilities_Math_pi -->
<g id="node5" class="node"><title>Cal_Utilities_Math_pi</title>
<ellipse style="fill:none;stroke:black;" cx="886" cy="-198" rx="97.9784" ry="18"/>
<text text-anchor="middle" x="886" y="-193.9" style="font-family:Times New Roman;font-size:14.00;">Cal_Utilities_Math_pi</text>
</g>
<!-- Cal_Utilities_Math_pi&#45;&gt;Cal_WS_Trampoline_calculatorWS_add -->
<g id="edge8" class="edge"><title>Cal_Utilities_Math_pi&#45;&gt;Cal_WS_Trampoline_calculatorWS_add</title>
<path style="fill:none;stroke:black;" d="M847,-181C812,-166 763,-146 726,-130"/>
<polygon style="fill:black;stroke:black;" points="726.585,-126.464 716,-126 723.985,-132.964 726.585,-126.464"/>
<text text-anchor="middle" x="808" y="-148.9" style="font-family:Times New Roman;font-size:14.00;">12</text>
</g>
</g>
</svg>
